<svg width="125" height="32" fill="none" xmlns="http://www.w3.org/2000/svg"><path d="M0 2a2 2 0 012-2h28a2 2 0 012 2v28a2 2 0 01-2 2H2a2 2 0 01-2-2V2z" fill="url(#paint0_linear)"/><path fill-rule="evenodd" clip-rule="evenodd" d="M23.376 18.752A9.974 9.974 0 0116 22a9.974 9.974 0 01-7.376-3.248L4 28h24l-4.624-9.248z" fill="#fff"/><circle cx="16" cy="12" r="8" fill="#fff"/><path d="M45.352 28.264c2.054 0 3.282-.963 3.844-2.062h.102V28h2.966v-8.761c0-3.46-2.82-4.5-5.318-4.5-2.753 0-4.866 1.227-5.548 3.613l2.88.41c.307-.896 1.177-1.663 2.685-1.663 1.432 0 2.216.733 2.216 2.02v.051c0 .887-.929.93-3.239 1.177-2.54.272-4.968 1.03-4.968 3.98 0 2.573 1.883 3.937 4.38 3.937zm.801-2.267c-1.286 0-2.207-.588-2.207-1.721 0-1.185 1.031-1.68 2.412-1.875.81-.111 2.429-.316 2.83-.64v1.543c0 1.457-1.177 2.693-3.035 2.693zM66.23 14.91h-3.28l-3.017 9.724h-.137l-3.008-9.725h-3.29L58.16 28h3.409l4.662-13.09zM71.398 28.264c2.054 0 3.281-.963 3.844-2.062h.102V28h2.966v-8.761c0-3.46-2.821-4.5-5.318-4.5-2.753 0-4.867 1.227-5.549 3.613l2.881.41c.307-.896 1.176-1.663 2.685-1.663 1.431 0 2.216.733 2.216 2.02v.051c0 .887-.93.93-3.239 1.177-2.54.272-4.969 1.03-4.969 3.98 0 2.573 1.884 3.937 4.38 3.937zm.801-2.267c-1.287 0-2.207-.588-2.207-1.721 0-1.185 1.03-1.68 2.412-1.875.81-.111 2.429-.316 2.83-.64v1.543c0 1.457-1.177 2.693-3.035 2.693zM87.589 14.91h-2.582v-3.137H81.92v3.136h-1.858v2.386h1.858v7.279c-.017 2.463 1.773 3.673 4.091 3.605a6.201 6.201 0 001.816-.307l-.52-2.412c-.17.043-.52.12-.904.12-.775 0-1.397-.273-1.397-1.517v-6.768h2.582V14.91zM93.576 28.264c2.054 0 3.282-.963 3.844-2.062h.102V28h2.966v-8.761c0-3.46-2.82-4.5-5.318-4.5-2.753 0-4.866 1.227-5.548 3.613l2.88.41c.307-.896 1.177-1.663 2.685-1.663 1.432 0 2.216.733 2.216 2.02v.051c0 .887-.929.93-3.239 1.177-2.54.272-4.968 1.03-4.968 3.98 0 2.573 1.883 3.937 4.38 3.937zm.802-2.267c-1.287 0-2.208-.588-2.208-1.721 0-1.185 1.031-1.68 2.412-1.875.81-.111 2.429-.316 2.83-.64v1.543c0 1.457-1.177 2.693-3.035 2.693zM103.231 28h3.085v-7.696c0-1.662 1.253-2.838 2.949-2.838.52 0 1.167.094 1.431.179v-2.838a7.41 7.41 0 00-1.108-.085c-1.5 0-2.752.852-3.23 2.369h-.136v-2.182h-2.991V28zM122.733 18.37c-.426-2.217-2.199-3.631-5.267-3.631-3.154 0-5.301 1.55-5.293 3.971-.008 1.91 1.168 3.17 3.682 3.69l2.233.47c1.202.264 1.764.75 1.764 1.49 0 .896-.972 1.569-2.437 1.569-1.415 0-2.336-.614-2.6-1.79l-3.008.29c.383 2.403 2.403 3.827 5.616 3.827 3.273 0 5.582-1.696 5.591-4.177-.009-1.866-1.21-3.008-3.682-3.545l-2.233-.477c-1.329-.298-1.858-.759-1.849-1.517-.009-.887.971-1.5 2.258-1.5 1.424 0 2.174.775 2.412 1.636l2.813-.307z" fill="#0F172A"/><path d="M43.996 11.75c2.105 0 3.323-1.306 3.323-3.465 0-2.149-1.218-3.444-3.252-3.444h-2.308v6.909h2.237zm-1.195-.91V5.751h1.201c1.512 0 2.291.904 2.291 2.533 0 1.637-.78 2.554-2.355 2.554h-1.137zM48.439 11.75h1.009V6.568h-1.009v5.182zm.51-5.981c.347 0 .637-.27.637-.6 0-.331-.29-.605-.637-.605-.351 0-.638.274-.638.604 0 .33.287.6.638.6zM52.892 11.855c1.225 0 2.018-.736 2.13-1.745h-.983c-.128.56-.563.891-1.14.891-.853 0-1.403-.712-1.403-1.842 0-1.11.56-1.808 1.403-1.808.641 0 1.032.405 1.14.89h.982c-.108-1.045-.961-1.74-2.139-1.74-1.46 0-2.405 1.1-2.405 2.682 0 1.562.91 2.672 2.416 2.672zM58.238 11.855c1.13 0 1.93-.557 2.16-1.4l-.955-.172c-.183.489-.621.738-1.195.738-.863 0-1.444-.56-1.47-1.558h3.683v-.358c0-1.872-1.12-2.604-2.294-2.604-1.444 0-2.395 1.1-2.395 2.692 0 1.609.938 2.662 2.466 2.662zm-1.457-3.148c.04-.735.573-1.373 1.393-1.373.783 0 1.296.58 1.299 1.373H56.78zM61.567 11.75h2.648c1.606 0 2.331-.8 2.331-1.859 0-1.07-.749-1.673-1.434-1.71v-.068c.634-.162 1.164-.593 1.164-1.457 0-1.022-.708-1.815-2.18-1.815h-2.53v6.909zm1.042-.894V8.643h1.542c.836 0 1.36.54 1.36 1.198 0 .58-.395 1.015-1.397 1.015h-1.505zm0-3.026V5.728h1.424c.826 0 1.22.435 1.22 1.009 0 .668-.546 1.093-1.247 1.093h-1.397zM69.84 11.855c1.13 0 1.93-.557 2.159-1.4l-.955-.172c-.182.489-.62.738-1.194.738-.864 0-1.444-.56-1.471-1.558h3.684v-.358c0-1.872-1.12-2.604-2.294-2.604-1.444 0-2.395 1.1-2.395 2.692 0 1.609.938 2.662 2.466 2.662zm-1.458-3.148c.04-.735.574-1.373 1.394-1.373.782 0 1.295.58 1.298 1.373h-2.692zM74.595 11.865c.857 0 1.34-.435 1.532-.824h.04v.709h.985V8.309c0-1.508-1.187-1.808-2.01-1.808-.938 0-1.802.378-2.14 1.322l.949.216c.148-.368.526-.722 1.204-.722.651 0 .985.34.985.928v.023c0 .368-.378.361-1.309.47-.981.114-1.987.37-1.987 1.548 0 1.019.766 1.579 1.751 1.579zm.22-.81c-.57 0-.982-.256-.982-.756 0-.54.479-.732 1.062-.81.328-.043 1.104-.13 1.249-.276v.668c0 .614-.49 1.174-1.33 1.174zM78.4 11.75h1.01V8.586c0-.679.522-1.168 1.238-1.168.209 0 .445.037.526.061v-.965a4.096 4.096 0 00-.429-.023c-.607 0-1.126.344-1.315.9h-.054v-.823H78.4v5.182z" fill="#475569"/><defs><linearGradient id="paint0_linear" x1="0" y1="0" x2="37.647" y2="9.412" gradientUnits="userSpaceOnUse"><stop stop-color="#38BDF8"/><stop offset="1" stop-color="#0284C7"/></linearGradient></defs></svg>