<svg width="188" height="48" viewBox="0 0 188 48" fill="none" xmlns="http://www.w3.org/2000/svg">
<path d="M70.5393 41.7749C73.6203 41.7749 75.4612 40.3303 76.3049 38.6812H76.4583V41.3786H80.9072V28.2366C80.9072 23.0462 76.6756 21.4866 72.9299 21.4866C68.8006 21.4866 65.6302 23.3275 64.6075 26.907L68.9285 27.5207C69.3887 26.1783 70.6927 25.0278 72.9555 25.0278C75.1032 25.0278 76.2793 26.1272 76.2793 28.0576V28.1343C76.2793 29.4639 74.8859 29.5278 71.4214 29.8985C67.6117 30.3076 63.9683 31.4454 63.9683 35.8687C63.9683 39.7295 66.7935 41.7749 70.5393 41.7749ZM71.741 38.3744C69.8106 38.3744 68.4299 37.4923 68.4299 35.792C68.4299 34.015 69.9768 33.2735 72.0478 32.9795C73.2623 32.8133 75.6913 32.5065 76.2921 32.0207V34.3346C76.2921 36.5207 74.5279 38.3744 71.741 38.3744Z" fill="#111827"/>
<path d="M101.857 21.7423H96.9354L92.4098 36.3289H92.2052L87.6925 21.7423H82.7578L89.7507 41.3786H94.8643L101.857 21.7423Z" fill="#111827"/>
<path d="M109.608 41.7749C112.689 41.7749 114.53 40.3303 115.373 38.6812H115.527V41.3786H119.976V28.2366C119.976 23.0462 115.744 21.4866 111.998 21.4866C107.869 21.4866 104.699 23.3275 103.676 26.907L107.997 27.5207C108.457 26.1783 109.761 25.0278 112.024 25.0278C114.172 25.0278 115.348 26.1272 115.348 28.0576V28.1343C115.348 29.4639 113.954 29.5278 110.49 29.8985C106.68 30.3076 103.037 31.4454 103.037 35.8687C103.037 39.7295 105.862 41.7749 109.608 41.7749ZM110.809 38.3744C108.879 38.3744 107.498 37.4923 107.498 35.792C107.498 34.015 109.045 33.2735 111.116 32.9795C112.331 32.8133 114.76 32.5065 115.361 32.0207V34.3346C115.361 36.5207 113.596 38.3744 110.809 38.3744Z" fill="#111827"/>
<path d="M133.894 21.7423H130.021V17.0377H125.393V21.7423H122.606V25.3218H125.393V36.2394C125.367 39.934 128.052 41.7494 131.529 41.6471C132.846 41.6087 133.754 41.3531 134.252 41.1869L133.473 37.569C133.217 37.6329 132.693 37.7479 132.117 37.7479C130.954 37.7479 130.021 37.3389 130.021 35.4724V25.3218H133.894V21.7423Z" fill="#111827"/>
<path d="M142.875 41.7749C145.956 41.7749 147.797 40.3303 148.641 38.6812H148.794V41.3786H153.243V28.2366C153.243 23.0462 149.012 21.4866 145.266 21.4866C141.137 21.4866 137.966 23.3275 136.944 26.907L141.265 27.5207C141.725 26.1783 143.029 25.0278 145.292 25.0278C147.439 25.0278 148.615 26.1272 148.615 28.0576V28.1343C148.615 29.4639 147.222 29.5278 143.757 29.8985C139.948 30.3076 136.304 31.4454 136.304 35.8687C136.304 39.7295 139.13 41.7749 142.875 41.7749ZM144.077 38.3744C142.147 38.3744 140.766 37.4923 140.766 35.792C140.766 34.015 142.313 33.2735 144.384 32.9795C145.598 32.8133 148.027 32.5065 148.628 32.0207V34.3346C148.628 36.5207 146.864 38.3744 144.077 38.3744Z" fill="#111827"/>
<path d="M157.357 41.3786H161.985V29.8346C161.985 27.3417 163.864 25.5775 166.408 25.5775C167.188 25.5775 168.159 25.7181 168.556 25.846V21.5889C168.134 21.5122 167.405 21.461 166.894 21.461C164.644 21.461 162.764 22.7394 162.048 25.015H161.844V21.7423H157.357V41.3786Z" fill="#111827"/>
<path d="M186.61 26.9326C185.971 23.6087 183.312 21.4866 178.709 21.4866C173.979 21.4866 170.758 23.8133 170.771 27.444C170.758 30.3076 172.522 32.1997 176.293 32.9795L179.643 33.6826C181.445 34.0789 182.289 34.8076 182.289 35.9198C182.289 37.2622 180.832 38.2721 178.633 38.2721C176.511 38.2721 175.13 37.3516 174.734 35.5874L170.221 36.0221C170.796 39.6272 173.826 41.7621 178.646 41.7621C183.555 41.7621 187.019 39.2181 187.032 35.4979C187.019 32.6982 185.217 30.9852 181.509 30.1798L178.16 29.4639C176.165 29.0164 175.373 28.3261 175.386 27.1883C175.373 25.8587 176.843 24.9383 178.773 24.9383C180.908 24.9383 182.033 26.1016 182.391 27.3928L186.61 26.9326Z" fill="#111827"/>
<path d="M68.5046 17.0037C71.6622 17.0037 73.489 15.0453 73.489 11.8067C73.489 8.58323 71.6622 6.64005 68.6108 6.64005H65.1495V17.0037H68.5046ZM66.7132 15.6374V8.00635H68.5147C70.7817 8.00635 71.9507 9.36253 71.9507 11.8067C71.9507 14.261 70.7817 15.6374 68.4185 15.6374H66.7132Z" fill="#9CA3AF"/>
<path d="M75.1695 17.0037H76.6826V9.23096H75.1695V17.0037ZM75.9336 8.03165C76.4549 8.03165 76.89 7.62682 76.89 7.1309C76.89 6.63499 76.4549 6.2251 75.9336 6.2251C75.4074 6.2251 74.9772 6.63499 74.9772 7.1309C74.9772 7.62682 75.4074 8.03165 75.9336 8.03165Z" fill="#9CA3AF"/>
<path d="M81.8497 17.1606C83.6866 17.1606 84.8758 16.0574 85.0428 14.5443H83.5702C83.3779 15.3844 82.7251 15.8803 81.8598 15.8803C80.5795 15.8803 79.7547 14.8125 79.7547 13.1173C79.7547 11.4525 80.5947 10.405 81.8598 10.405C82.8213 10.405 83.4083 11.0122 83.5702 11.7409H85.0428C84.8808 10.1722 83.6006 9.12975 81.8345 9.12975C79.6433 9.12975 78.2264 10.7794 78.2264 13.1527C78.2264 15.4957 79.5927 17.1606 81.8497 17.1606Z" fill="#9CA3AF"/>
<path d="M89.8683 17.1606C91.5635 17.1606 92.7628 16.3256 93.1069 15.0605L91.6748 14.8024C91.4016 15.5362 90.7437 15.9106 89.8835 15.9106C88.588 15.9106 87.7176 15.0706 87.6771 13.5728H93.2031V13.0364C93.2031 10.2278 91.523 9.12975 89.762 9.12975C87.5962 9.12975 86.1691 10.7794 86.1691 13.1679C86.1691 15.5817 87.5759 17.1606 89.8683 17.1606ZM87.6822 12.4392C87.7429 11.3361 88.5425 10.3797 89.7721 10.3797C90.9461 10.3797 91.7153 11.25 91.7204 12.4392H87.6822Z" fill="#9CA3AF"/>
<path d="M94.8608 17.0037H98.8332C101.242 17.0037 102.33 15.8044 102.33 14.2154C102.33 12.6113 101.206 11.7055 100.179 11.6498V11.5486C101.131 11.3057 101.925 10.658 101.925 9.36253C101.925 7.82923 100.862 6.64005 98.6561 6.64005H94.8608V17.0037ZM96.4244 15.6627V12.3431H98.737C99.992 12.3431 100.776 13.1527 100.776 14.1395C100.776 15.0099 100.184 15.6627 98.6814 15.6627H96.4244ZM96.4244 11.1235V7.97092H98.5599C99.7997 7.97092 100.392 8.62371 100.392 9.48398C100.392 10.4859 99.572 11.1235 98.5194 11.1235H96.4244Z" fill="#9CA3AF"/>
<path d="M107.271 17.1606C108.966 17.1606 110.165 16.3256 110.509 15.0605L109.077 14.8024C108.804 15.5362 108.146 15.9106 107.286 15.9106C105.99 15.9106 105.12 15.0706 105.079 13.5728H110.605V13.0364C110.605 10.2278 108.925 9.12975 107.164 9.12975C104.998 9.12975 103.571 10.7794 103.571 13.1679C103.571 15.5817 104.978 17.1606 107.271 17.1606ZM105.084 12.4392C105.145 11.3361 105.945 10.3797 107.174 10.3797C108.348 10.3797 109.118 11.25 109.123 12.4392H105.084Z" fill="#9CA3AF"/>
<path d="M114.404 17.1757C115.689 17.1757 116.413 16.5229 116.701 15.941H116.762V17.0037H118.239V11.8421C118.239 9.58012 116.458 9.12975 115.223 9.12975C113.817 9.12975 112.521 9.69651 112.015 11.1134L113.437 11.4373C113.66 10.8857 114.226 10.3544 115.244 10.3544C116.22 10.3544 116.721 10.8655 116.721 11.746V11.7814C116.721 12.333 116.154 12.3228 114.758 12.4848C113.285 12.6568 111.777 13.0414 111.777 14.8075C111.777 16.3357 112.926 17.1757 114.404 17.1757ZM114.732 15.9612C113.877 15.9612 113.26 15.5767 113.26 14.8277C113.26 14.0181 113.979 13.7296 114.854 13.6132C115.345 13.5475 116.509 13.4159 116.726 13.1983V14.2002C116.726 15.1212 115.993 15.9612 114.732 15.9612Z" fill="#9CA3AF"/>
<path d="M120.112 17.0037H121.625V12.2571C121.625 11.2399 122.41 10.5062 123.482 10.5062C123.796 10.5062 124.15 10.5618 124.272 10.5973V9.14999C124.12 9.12975 123.821 9.11457 123.629 9.11457C122.718 9.11457 121.939 9.63073 121.656 10.4657H121.575V9.23096H120.112V17.0037Z" fill="#9CA3AF"/>
<g clip-path="url(#clip0)">
<rect width="48" height="48" rx="2" fill="#F3F4F6"/>
<path d="M19.1999 36V38.4H9.59993V40.8H7.19993V48H40.7999V40.8H38.3999V38.4H28.7999V36H35.9999V33.6H38.3999V31.2H40.7999V24H43.1999V16.8H40.7999V9.60005H38.3999V7.20005H35.9999V4.80005H11.9999V7.20005H9.59993V9.60005H7.19993V16.8H4.79993V24H7.19993V31.2H9.59993V33.6H11.9999V36H19.1999Z" fill="#CB9E6E"/>
<path d="M11.9999 36V33.6H9.59993V31.2H7.19993V24H4.79993V16.8H7.19993V9.60005H9.59993V7.20005H11.9999V4.80005H35.9999V7.20005H38.3999V9.60005H40.7999V16.8H43.1999V24H40.7999V31.2H38.3999V33.6H35.9999V36H11.9999Z" fill="white" fill-opacity="0.1"/>
<path d="M12 16.8H19.2V21.6H12V16.8ZM28.8 16.8H36V21.6H28.8V16.8Z" fill="white"/>
<path d="M16.8 19.2H19.2V21.6H16.8V19.2ZM28.8 19.2H31.2V21.6H28.8V19.2Z" fill="#76778B"/>
<path fill-rule="evenodd" clip-rule="evenodd" d="M9.59998 16.8V14.4H12V12H14.4V14.4H12V16.8H9.59998ZM33.6 12H36V14.4H38.4V16.8H36V14.4H33.6V12Z" fill="black"/>
<path d="M7.20007 16.8V31.2H9.60007V33.6H12.0001V36H36.0001V33.6H38.4001V31.2H40.8001V16.8H38.4001V21.6H36.0001V24H33.6001V26.4H14.4001V24H12.0001V21.6H9.60007V16.8H7.20007Z" fill="#090806"/>
<path d="M19.2 31.2001V33.6001H28.7999V31.2001H31.1999V28.8H28.7999V31.2001H19.2Z" fill="#E6B49E"/>
<path d="M7.20007 48V40.8H9.60007V38.4H19.2001V40.8H21.6001V43.2H26.4001V40.8H28.8001V38.4H38.4001V40.8H40.8001V48H7.20007Z" fill="#428BCA"/>
<path fill-rule="evenodd" clip-rule="evenodd" d="M9.59998 40.8V38.4H16.8V40.8H9.59998ZM31.2 40.8V38.4H38.4V40.8H31.2Z" fill="white" fill-opacity="0.2"/>
<path d="M7.20007 14.4001H9.60007V9.60005H12.0001V7.20005H16.8001V9.60005H19.2001V12.0001H28.8001V9.60005H31.2001V7.20005H36.0001V9.60005H38.4001V14.4001H40.8001V9.60005H38.4001V7.20005H36.0001V4.80005H12.0001V7.20005H9.60007V9.60005H7.20007V14.4001Z" fill="#090806"/>
<path d="M4.79993 9.6V7.2H9.59993V0H38.3999V7.2H43.1999V9.6H4.79993Z" fill="#989789"/>
<path d="M9.59998 0V7.2H38.4V0H9.59998Z" fill="white" fill-opacity="0.2"/>
</g>
<defs>
<clipPath id="clip0">
<rect width="48" height="48" rx="2" fill="white"/>
</clipPath>
</defs>
</svg>
