<svg width="234" height="40" viewBox="0 0 234 40" fill="none" xmlns="http://www.w3.org/2000/svg">
<path d="M64.395 5.83002C67.3283 5.83002 69.9017 6.40335 72.115 7.55001C74.355 8.69668 76.075 10.3367 77.275 12.47C78.5017 14.5767 79.115 17.03 79.115 19.83C79.115 22.63 78.5017 25.0833 77.275 27.19C76.075 29.27 74.355 30.8834 72.115 32.03C69.9017 33.1767 67.3283 33.75 64.395 33.75H54.635V5.83002H64.395ZM64.195 28.99C67.1283 28.99 69.395 28.19 70.995 26.59C72.595 24.99 73.395 22.7367 73.395 19.83C73.395 16.9233 72.595 14.6567 70.995 13.03C69.395 11.3767 67.1283 10.55 64.195 10.55H60.235V28.99H64.195Z" fill="#111827"/>
<path d="M86.1469 8.95002C85.1602 8.95002 84.3336 8.64335 83.6669 8.03002C83.0269 7.39001 82.7069 6.60335 82.7069 5.67002C82.7069 4.73668 83.0269 3.96335 83.6669 3.35001C84.3336 2.71001 85.1602 2.39001 86.1469 2.39001C87.1336 2.39001 87.9469 2.71001 88.5869 3.35001C89.2536 3.96335 89.5869 4.73668 89.5869 5.67002C89.5869 6.60335 89.2536 7.39001 88.5869 8.03002C87.9469 8.64335 87.1336 8.95002 86.1469 8.95002ZM88.9069 11.59V33.75H83.3069V11.59H88.9069Z" fill="#111827"/>
<path d="M92.9997 22.67C92.9997 20.3767 93.4664 18.3767 94.3997 16.67C95.333 14.9367 96.6264 13.6033 98.2797 12.67C99.933 11.71 101.826 11.23 103.96 11.23C106.706 11.23 108.973 11.9233 110.76 13.31C112.573 14.67 113.786 16.59 114.4 19.07H108.36C108.04 18.11 107.493 17.3633 106.72 16.83C105.973 16.27 105.04 15.99 103.92 15.99C102.32 15.99 101.053 16.5767 100.12 17.75C99.1864 18.8967 98.7197 20.5367 98.7197 22.67C98.7197 24.7767 99.1864 26.4167 100.12 27.59C101.053 28.7367 102.32 29.31 103.92 29.31C106.186 29.31 107.666 28.2967 108.36 26.27H114.4C113.786 28.67 112.573 30.5767 110.76 31.99C108.946 33.4033 106.68 34.11 103.96 34.11C101.826 34.11 99.933 33.6433 98.2797 32.71C96.6264 31.75 95.333 30.4167 94.3997 28.71C93.4664 26.9767 92.9997 24.9633 92.9997 22.67Z" fill="#111827"/>
<path d="M139.102 22.19C139.102 22.99 139.049 23.71 138.942 24.35H122.742C122.876 25.95 123.436 27.2033 124.422 28.11C125.409 29.0167 126.622 29.47 128.062 29.47C130.142 29.47 131.622 28.5767 132.502 26.79H138.542C137.902 28.9233 136.676 30.6833 134.862 32.07C133.049 33.43 130.822 34.11 128.182 34.11C126.049 34.11 124.129 33.6433 122.422 32.71C120.742 31.75 119.422 30.4034 118.462 28.67C117.529 26.9367 117.062 24.9367 117.062 22.67C117.062 20.3767 117.529 18.3633 118.462 16.63C119.396 14.8967 120.702 13.5633 122.382 12.63C124.062 11.6967 125.996 11.23 128.182 11.23C130.289 11.23 132.169 11.6833 133.822 12.59C135.502 13.4967 136.796 14.79 137.702 16.47C138.636 18.1233 139.102 20.03 139.102 22.19ZM133.302 20.59C133.276 19.15 132.756 18.0033 131.742 17.15C130.729 16.27 129.489 15.83 128.022 15.83C126.636 15.83 125.462 16.2567 124.502 17.11C123.569 17.9367 122.996 19.0967 122.782 20.59H133.302Z" fill="#111827"/>
<path d="M159.03 19.43C160.603 19.7233 161.896 20.51 162.91 21.79C163.923 23.07 164.43 24.5367 164.43 26.19C164.43 27.6833 164.056 29.0033 163.31 30.15C162.59 31.27 161.536 32.15 160.15 32.79C158.763 33.43 157.123 33.75 155.23 33.75H143.19V5.83002H154.71C156.603 5.83002 158.23 6.13668 159.59 6.75002C160.976 7.36335 162.016 8.21668 162.71 9.31002C163.43 10.4033 163.79 11.6433 163.79 13.03C163.79 14.6567 163.35 16.0167 162.47 17.11C161.616 18.2033 160.47 18.9767 159.03 19.43ZM148.79 17.35H153.91C155.243 17.35 156.27 17.0567 156.99 16.47C157.71 15.8567 158.07 14.99 158.07 13.87C158.07 12.75 157.71 11.8833 156.99 11.27C156.27 10.6567 155.243 10.35 153.91 10.35H148.79V17.35ZM154.43 29.19C155.79 29.19 156.843 28.87 157.59 28.23C158.363 27.59 158.75 26.6833 158.75 25.51C158.75 24.31 158.35 23.3767 157.55 22.71C156.75 22.0167 155.67 21.67 154.31 21.67H148.79V29.19H154.43Z" fill="#111827"/>
<path d="M189.493 22.19C189.493 22.99 189.439 23.71 189.333 24.35H173.133C173.266 25.95 173.826 27.2033 174.813 28.11C175.799 29.0167 177.013 29.47 178.453 29.47C180.533 29.47 182.013 28.5767 182.893 26.79H188.933C188.293 28.9233 187.066 30.6833 185.253 32.07C183.439 33.43 181.213 34.11 178.573 34.11C176.439 34.11 174.519 33.6433 172.813 32.71C171.133 31.75 169.813 30.4034 168.853 28.67C167.919 26.9367 167.453 24.9367 167.453 22.67C167.453 20.3767 167.919 18.3633 168.853 16.63C169.786 14.8967 171.093 13.5633 172.773 12.63C174.453 11.6967 176.386 11.23 178.573 11.23C180.679 11.23 182.559 11.6833 184.213 12.59C185.893 13.4967 187.186 14.79 188.093 16.47C189.026 18.1233 189.493 20.03 189.493 22.19ZM183.693 20.59C183.666 19.15 183.146 18.0033 182.133 17.15C181.119 16.27 179.879 15.83 178.413 15.83C177.026 15.83 175.853 16.2567 174.893 17.11C173.959 17.9367 173.386 19.0967 173.173 20.59H183.693Z" fill="#111827"/>
<path d="M192.14 22.59C192.14 20.35 192.58 18.3633 193.46 16.63C194.367 14.8967 195.58 13.5633 197.1 12.63C198.647 11.6967 200.367 11.23 202.26 11.23C203.914 11.23 205.354 11.5633 206.58 12.23C207.834 12.8967 208.834 13.7367 209.58 14.75V11.59H215.22V33.75H209.58V30.51C208.86 31.55 207.86 32.4167 206.58 33.11C205.327 33.7767 203.874 34.11 202.22 34.11C200.354 34.11 198.647 33.63 197.1 32.67C195.58 31.71 194.367 30.3633 193.46 28.63C192.58 26.87 192.14 24.8567 192.14 22.59ZM209.58 22.67C209.58 21.31 209.314 20.15 208.78 19.19C208.247 18.2033 207.527 17.4567 206.62 16.95C205.714 16.4167 204.74 16.15 203.7 16.15C202.66 16.15 201.7 16.4033 200.82 16.91C199.94 17.4167 199.22 18.1633 198.66 19.15C198.127 20.11 197.86 21.2567 197.86 22.59C197.86 23.9233 198.127 25.0967 198.66 26.11C199.22 27.0967 199.94 27.8567 200.82 28.39C201.727 28.9233 202.687 29.19 203.7 29.19C204.74 29.19 205.714 28.9367 206.62 28.43C207.527 27.8967 208.247 27.15 208.78 26.19C209.314 25.2034 209.58 24.03 209.58 22.67Z" fill="#111827"/>
<path d="M226.29 15.03C227.01 13.8567 227.943 12.9367 229.09 12.27C230.263 11.6033 231.596 11.27 233.09 11.27V17.15H231.61C229.85 17.15 228.516 17.5633 227.61 18.39C226.73 19.2167 226.29 20.6567 226.29 22.71V33.75H220.69V11.59H226.29V15.03Z" fill="#111827"/>
<path d="M0 2.5C0 1.11929 1.11929 0 2.5 0H37.5C38.8807 0 40 1.11929 40 2.5V16.7416C40 18.6187 38.0346 19.7713 36.4988 18.692C33.7916 16.7895 31.5667 14.7875 31.4789 14.7082C31.4751 14.7048 31.4736 14.7051 31.4686 14.7038C31.4537 14.6998 31.4437 14.686 31.4443 14.6706C31.5213 12.6407 30.4699 10.8552 28.7762 10.4014C27.4757 10.0529 26.1105 10.5738 25.1174 11.6479C24.3811 12.4443 23.4058 13.0921 22.3224 13.0401C20.4583 12.9506 18.5513 13.0159 17.6527 13.5293C16.7393 14.0513 16.2311 14.6312 15.7172 15.2175C15.0728 15.9528 14.4195 16.6984 12.9468 17.3529C11.7523 17.8837 10.6166 17.9954 9.62167 18.0932C8.41182 18.2121 7.41026 18.3106 6.76468 19.1176C5.58821 20.5882 8.23527 28.5293 12.9468 28.8235C14.1892 28.901 15.3081 28.9377 16.3308 28.9712C19.1864 29.0647 21.2919 29.1337 23.2409 29.9999C24.4296 30.5282 25.5589 33.6658 26.4425 36.9629C26.8574 38.511 25.6629 40 24.0601 40H2.5C1.11929 40 0 38.8807 0 37.5V2.5Z" fill="#111827"/>
<path d="M21.5625 17.5C21.5625 18.5355 20.723 19.375 19.6875 19.375C18.652 19.375 17.8125 18.5355 17.8125 17.5C17.8125 16.4645 18.652 15.625 19.6875 15.625C20.723 15.625 21.5625 16.4645 21.5625 17.5Z" fill="#111827"/>
</svg>
